<svg width="24" height="24" viewBox="0 0 24 24" fill="none" xmlns="http://www.w3.org/2000/svg">
<g clip-path="url(#clip0_25_18916)">
<path fill-rule="evenodd" clip-rule="evenodd" d="M5.875 5.75C5.57663 5.75 5.29048 5.86853 5.0795 6.0795C4.86853 6.29048 4.75 6.57663 4.75 6.875V18.875C4.75 19.1734 4.86853 19.4595 5.0795 19.6705C5.29048 19.8815 5.57663 20 5.875 20H17.875C18.1734 20 18.4595 19.8815 18.6705 19.6705C18.8815 19.4595 19 19.1734 19 18.875V6.875C19 6.57663 18.8815 6.29048 18.6705 6.0795C18.4595 5.86853 18.1734 5.75 17.875 5.75H5.875ZM3.84207 4.84207C4.38124 4.3029 5.1125 4 5.875 4H17.875C18.6375 4 19.3688 4.3029 19.9079 4.84207C20.4471 5.38123 20.75 6.1125 20.75 6.875V18.875C20.75 19.6375 20.4471 20.3688 19.9079 20.9079C19.3688 21.4471 18.6375 21.75 17.875 21.75H5.875C5.1125 21.75 4.38123 21.4471 3.84207 20.9079C3.3029 20.3688 3 19.6375 3 18.875V6.875C3 6.1125 3.3029 5.38124 3.84207 4.84207Z" fill="currentColor"/>
<path fill-rule="evenodd" clip-rule="evenodd" d="M15.875 2C16.3582 2 16.75 2.39175 16.75 2.875V6.875C16.75 7.35825 16.3582 7.75 15.875 7.75C15.3918 7.75 15 7.35825 15 6.875V2.875C15 2.39175 15.3918 2 15.875 2Z" fill="currentColor"/>
<path fill-rule="evenodd" clip-rule="evenodd" d="M7.875 2C8.35825 2 8.75 2.39175 8.75 2.875V6.875C8.75 7.35825 8.35825 7.75 7.875 7.75C7.39175 7.75 7 7.35825 7 6.875V2.875C7 2.39175 7.39175 2 7.875 2Z" fill="currentColor"/>
<path fill-rule="evenodd" clip-rule="evenodd" d="M3 10.875C3 10.3918 3.39175 10 3.875 10H19.875C20.3582 10 20.75 10.3918 20.75 10.875C20.75 11.3582 20.3582 11.75 19.875 11.75H3.875C3.39175 11.75 3 11.3582 3 10.875Z" fill="currentColor"/>
<path fill-rule="evenodd" clip-rule="evenodd" d="M7 14.875C7 14.3918 7.39175 14 7.875 14H9.875C10.3582 14 10.75 14.3918 10.75 14.875V16.875C10.75 17.3582 10.3582 17.75 9.875 17.75H7.875C7.39175 17.75 7 17.3582 7 16.875V14.875Z" fill="currentColor"/>
</g>
<defs>
<clipPath id="clip0_25_18916">
<rect width="24" height="24" fill="white"/>
</clipPath>
</defs>
</svg>
