<svg width="24" height="24" viewBox="0 0 24 24" fill="none" xmlns="http://www.w3.org/2000/svg">
<path fill-rule="evenodd" clip-rule="evenodd" d="M9.25996 9.25996C9.98666 8.53326 10.9723 8.125 12 8.125C13.0277 8.125 14.0133 8.53326 14.74 9.25996C15.4667 9.98666 15.875 10.9723 15.875 12C15.875 13.0277 15.4667 14.0133 14.74 14.74C14.0133 15.4667 13.0277 15.875 12 15.875C10.9723 15.875 9.98666 15.4667 9.25996 14.74C8.53326 14.0133 8.125 13.0277 8.125 12C8.125 10.9723 8.53326 9.98666 9.25996 9.25996ZM12 9.875C11.4364 9.875 10.8959 10.0989 10.4974 10.4974C10.0989 10.8959 9.875 11.4364 9.875 12C9.875 12.5636 10.0989 13.1041 10.4974 13.5026C10.8959 13.9011 11.4364 14.125 12 14.125C12.5636 14.125 13.1041 13.9011 13.5026 13.5026C13.9011 13.1041 14.125 12.5636 14.125 12C14.125 11.4364 13.9011 10.8959 13.5026 10.4974C13.1041 10.0989 12.5636 9.875 12 9.875Z" fill="currentColor"/>
<path fill-rule="evenodd" clip-rule="evenodd" d="M3.01392 12C5.53422 16.1991 8.5372 18.125 12 18.125C15.4628 18.125 18.4658 16.1991 20.9861 12C18.4658 7.80094 15.4628 5.875 12 5.875C8.5372 5.875 5.53422 7.80094 3.01392 12ZM1.24029 11.5659C4.00184 6.73317 7.57999 4.125 12 4.125C16.42 4.125 19.9982 6.73317 22.7597 11.5659C22.9134 11.8349 22.9134 12.1651 22.7597 12.4341C19.9982 17.2668 16.42 19.875 12 19.875C7.57999 19.875 4.00184 17.2668 1.24029 12.4341C1.08657 12.1651 1.08657 11.8349 1.24029 11.5659Z" fill="currentColor"/>
</svg>
